<svg xmlns="http://www.w3.org/2000/svg" width="430" height="900">
<rect width="430" height="900" fill="#f5f7f6"/>
<rect width="430" height="54" fill="white"/><rect x="12" y="9" width="36" height="36" rx="4" fill="#157a5c"/><text x="30" y="33" text-anchor="middle" fill="white" font-family="Tahoma" font-weight="700">L</text><text x="60" y="31" fill="#157a5c" font-family="Tahoma" font-weight="700">ขายหน้าร้าน</text><rect x="366" y="9" width="52" height="36" rx="4" fill="white" stroke="#d5dcd8"/><text x="392" y="32" text-anchor="middle" font-family="Tahoma">c111</text>
<g font-family="Tahoma"><rect x="8" y="62" width="414" height="80" rx="4" fill="white"/><text x="20" y="84" fill="#66746b" font-size="11">สาขา / จุดขาย / เครื่อง</text><text x="20" y="106" font-weight="700">HO · หน้าร้านสำนักงานใหญ่ · POS-HO-01</text><text x="20" y="128" fill="#66746b" font-size="11">กะ SHIFT-20261001-01</text><rect x="338" y="112" width="72" height="22" rx="4" fill="#e7f3ef"/><text x="374" y="127" text-anchor="middle" fill="#157a5c" font-size="11">พร้อมขาย</text>
<rect x="8" y="150" width="414" height="56" rx="4" fill="white" stroke="#d5dcd8"/><text x="26" y="184" fill="#66746b">ค้นหา / สแกนบาร์โค้ด</text>
<rect x="8" y="214" width="203" height="48" rx="4" fill="#157a5c"/><text x="109" y="244" text-anchor="middle" fill="white" font-weight="700">สินค้า</text><rect x="219" y="214" width="203" height="48" rx="4" fill="white" stroke="#d5dcd8"/><text x="320" y="244" text-anchor="middle" fill="#157a5c" font-weight="700">ตะกร้า · 4</text>
<rect x="8" y="270" width="200" height="148" rx="4" fill="white" stroke="#d5dcd8"/><text x="20" y="296" fill="#66746b" font-size="11">NM001</text><text x="20" y="322" font-weight="700">Card Mifare</text><text x="20" y="366" fill="#157a5c" font-size="18" font-weight="700">฿7.00</text><text x="196" y="366" text-anchor="end" fill="#66746b" font-size="11">เหลือ 3</text><rect x="20" y="382" width="176" height="26" rx="4" fill="#e7f3ef"/><text x="108" y="400" text-anchor="middle" fill="#157a5c" font-size="11">แตะเพื่อเพิ่ม</text>
<rect x="216" y="270" width="206" height="148" rx="4" fill="#f1f3f2"/><text x="228" y="296" fill="#66746b" font-size="11">NZ001</text><text x="228" y="322" font-weight="700">Siren สีแดง 12v</text><text x="228" y="366" font-size="18" font-weight="700">฿100.00</text><text x="410" y="366" text-anchor="end" fill="#c93636" font-size="11">สินค้าหมด</text></g>
<g font-family="Tahoma"><rect x="8" y="426" width="200" height="148" rx="4" fill="#f1f3f2"/><text x="20" y="452" fill="#66746b" font-size="11">NK001</text><text x="20" y="478" font-weight="700">กลอนแม่เหล็กไฟฟ้า</text><text x="20" y="500" font-size="11">180 ปอนด์</text><text x="20" y="548" font-size="18" font-weight="700">฿1,000.00</text><text x="196" y="548" text-anchor="end" fill="#c93636" font-size="11">สินค้าหมด</text>
<rect x="216" y="426" width="206" height="148" rx="4" fill="white" stroke="#d5dcd8"/><text x="228" y="452" fill="#66746b" font-size="11">NA001</text><text x="228" y="478" font-weight="700">Keytag ID 125 Khz</text><text x="228" y="526" fill="#9a6100" font-size="16" font-weight="700">ยังไม่มีราคา</text><text x="410" y="548" text-anchor="end" fill="#66746b" font-size="11">เหลือ 7</text>
<rect x="8" y="582" width="414" height="42" rx="4" fill="white"/><text x="20" y="608" fill="#66746b" font-size="11">1–4 จาก 7 · คลัง HO-A · อัปเดต 14:35</text>
<rect x="0" y="714" width="430" height="186" fill="white"/><line x2="430" y1="714" y2="714" stroke="#e0e5e2"/><text x="16" y="746" fill="#66746b">ตะกร้า 4 รายการ</text><text x="414" y="750" text-anchor="end" fill="#157a5c" font-size="30" font-weight="700">฿1,278.50</text>
<rect x="16" y="770" width="398" height="64" rx="4" fill="#157a5c"/><text x="34" y="809" fill="white" font-size="16" font-weight="700">ชำระเงิน</text><text x="396" y="812" text-anchor="end" fill="white" font-size="26" font-weight="700">฿1,278.50</text><rect x="16" y="842" width="193" height="48" rx="4" fill="white" stroke="#d5dcd8"/><text x="112" y="872" text-anchor="middle" fill="#157a5c">พักบิล</text><rect x="217" y="842" width="197" height="48" rx="4" fill="white" stroke="#d5dcd8"/><text x="316" y="872" text-anchor="middle" fill="#157a5c">ดูตะกร้า</text></g>
</svg>
